<svg xmlns="http://www.w3.org/2000/svg" viewBox="0 0 512 512" id="flight"><defs><linearGradient id="a" x1="255.987" x2="255.987" y1="10" y2="512.673" gradientUnits="userSpaceOnUse"><stop offset="0" stop-color="#00efd1"></stop><stop offset="1" stop-color="#00acea"></stop></linearGradient></defs><g><path fill="url(#a)" d="M383.268,53.144c-.061.061-.122.124-.181.187L345.2,93.768l-201.14-10.2A8.015,8.015,0,0,0,138,85.9l-45.59,45.59a8,8,0,0,0,3.372,13.325l157.588,46.972-64.413,68.752L71.91,252.5a7.968,7.968,0,0,0-6.2,2.324L39.832,280.7a8,8,0,0,0,2.388,12.959l75.344,33.74a131.02,131.02,0,0,1,39.231,27.019l.2.2a131.057,131.057,0,0,1,26.85,38.832l34.509,76.355a8,8,0,0,0,12.947,2.362L257.174,446.3a8,8,0,0,0,2.324-6.205l-8.034-117.045,68.752-64.414,46.972,157.588a8,8,0,0,0,13.325,3.372L426.1,374a8.009,8.009,0,0,0,2.333-6.063l-10.2-201.14,40.437-37.885c.063-.059.126-.12.187-.181a53.449,53.449,0,1,0-75.588-75.588ZM113.213,133.312,146.8,99.725l184.074,9.336L265.6,178.733ZM412.275,365.2l-33.587,33.587L333.267,246.4l69.672-65.277ZM447.63,117.33,210.812,339.206a8,8,0,0,0,10.94,11.676L236.4,337.163l6.891,100.392-15.118,15.117-29.743-65.811a147,147,0,0,0-30.1-43.541l-.2-.2A147,147,0,0,0,124.1,312.8L59.358,283.8l15.087-15.088,100.392,6.891-13.719,14.643a8,8,0,1,0,11.676,10.94L394.67,64.37a37.449,37.449,0,0,1,52.96,52.96Z"></path></g></svg>